<svg width="22" height="22" viewBox="0 0 22 22" fill="none" xmlns="http://www.w3.org/2000/svg">
<path d="M7.33325 5.27087C6.95742 5.27087 6.64575 4.95921 6.64575 4.58337V1.83337C6.64575 1.45754 6.95742 1.14587 7.33325 1.14587C7.70909 1.14587 8.02075 1.45754 8.02075 1.83337V4.58337C8.02075 4.95921 7.70909 5.27087 7.33325 5.27087Z" fill="#048547"/>
<path d="M14.6667 5.27087C14.2909 5.27087 13.9792 4.95921 13.9792 4.58337V1.83337C13.9792 1.45754 14.2909 1.14587 14.6667 1.14587C15.0426 1.14587 15.3542 1.45754 15.3542 1.83337V4.58337C15.3542 4.95921 15.0426 5.27087 14.6667 5.27087Z" fill="#048547"/>
<path d="M7.79167 13.2916C7.6725 13.2916 7.55333 13.2641 7.44333 13.2183C7.32417 13.1725 7.2325 13.1083 7.14083 13.0258C6.97583 12.8516 6.875 12.6225 6.875 12.375C6.875 12.2558 6.9025 12.1366 6.94834 12.0266C6.99417 11.9166 7.05833 11.8158 7.14083 11.7241C7.2325 11.6416 7.32417 11.5774 7.44333 11.5316C7.77333 11.3941 8.18583 11.4675 8.4425 11.7241C8.6075 11.8983 8.70833 12.1366 8.70833 12.375C8.70833 12.43 8.69917 12.4941 8.69 12.5583C8.68083 12.6133 8.6625 12.6683 8.635 12.7233C8.61667 12.7783 8.58917 12.8333 8.5525 12.8883C8.525 12.9341 8.47917 12.98 8.4425 13.0258C8.26833 13.1908 8.03 13.2916 7.79167 13.2916Z" fill="#048547"/>
<path d="M10.9999 13.2917C10.8808 13.2917 10.7616 13.2642 10.6516 13.2184C10.5324 13.1725 10.4408 13.1083 10.3491 13.0258C10.1841 12.8517 10.0833 12.6225 10.0833 12.375C10.0833 12.2558 10.1108 12.1367 10.1566 12.0267C10.2024 11.9167 10.2666 11.8158 10.3491 11.7242C10.4408 11.6417 10.5324 11.5775 10.6516 11.5317C10.9816 11.385 11.3941 11.4675 11.6508 11.7242C11.8158 11.8983 11.9166 12.1367 11.9166 12.375C11.9166 12.43 11.9074 12.4942 11.8983 12.5584C11.8891 12.6134 11.8708 12.6683 11.8433 12.7233C11.8249 12.7783 11.7974 12.8333 11.7608 12.8883C11.7333 12.9342 11.6874 12.98 11.6508 13.0258C11.4766 13.1908 11.2383 13.2917 10.9999 13.2917Z" fill="#048547"/>
<path d="M14.2084 13.2917C14.0892 13.2917 13.9701 13.2642 13.8601 13.2184C13.7409 13.1725 13.6492 13.1083 13.5576 13.0258C13.5209 12.98 13.4842 12.9342 13.4476 12.8883C13.4109 12.8333 13.3834 12.7783 13.3651 12.7233C13.3376 12.6683 13.3192 12.6134 13.3101 12.5584C13.3009 12.4942 13.2917 12.43 13.2917 12.375C13.2917 12.1367 13.3926 11.8983 13.5576 11.7242C13.6492 11.6417 13.7409 11.5775 13.8601 11.5317C14.1992 11.385 14.6026 11.4675 14.8592 11.7242C15.0242 11.8983 15.1251 12.1367 15.1251 12.375C15.1251 12.43 15.1159 12.4942 15.1067 12.5584C15.0976 12.6134 15.0792 12.6683 15.0517 12.7233C15.0334 12.7783 15.0059 12.8333 14.9692 12.8883C14.9417 12.9342 14.8959 12.98 14.8592 13.0258C14.6851 13.1908 14.4467 13.2917 14.2084 13.2917Z" fill="#048547"/>
<path d="M7.79167 16.5C7.6725 16.5 7.55333 16.4725 7.44333 16.4266C7.33333 16.3808 7.2325 16.3166 7.14083 16.2341C6.97583 16.06 6.875 15.8216 6.875 15.5833C6.875 15.4641 6.9025 15.345 6.94834 15.235C6.99417 15.1158 7.05833 15.015 7.14083 14.9325C7.48 14.5933 8.10333 14.5933 8.4425 14.9325C8.6075 15.1066 8.70833 15.345 8.70833 15.5833C8.70833 15.8216 8.6075 16.06 8.4425 16.2341C8.26833 16.3991 8.03 16.5 7.79167 16.5Z" fill="#048547"/>
<path d="M10.9999 16.5C10.7616 16.5 10.5233 16.3991 10.3491 16.2341C10.1841 16.06 10.0833 15.8216 10.0833 15.5833C10.0833 15.4641 10.1108 15.345 10.1566 15.235C10.2024 15.1158 10.2666 15.015 10.3491 14.9325C10.6883 14.5933 11.3116 14.5933 11.6508 14.9325C11.7333 15.015 11.7974 15.1158 11.8433 15.235C11.8891 15.345 11.9166 15.4641 11.9166 15.5833C11.9166 15.8216 11.8158 16.06 11.6508 16.2341C11.4766 16.3991 11.2383 16.5 10.9999 16.5Z" fill="#048547"/>
<path d="M14.2084 16.5C13.9701 16.5 13.7317 16.3992 13.5576 16.2342C13.4751 16.1517 13.4109 16.0509 13.3651 15.9317C13.3192 15.8217 13.2917 15.7025 13.2917 15.5834C13.2917 15.4642 13.3192 15.345 13.3651 15.235C13.4109 15.1159 13.4751 15.0151 13.5576 14.9326C13.7684 14.7217 14.0892 14.6209 14.3826 14.685C14.4467 14.6942 14.5017 14.7125 14.5567 14.74C14.6117 14.7584 14.6667 14.7859 14.7217 14.8226C14.7676 14.8501 14.8134 14.8959 14.8592 14.9326C15.0242 15.1067 15.1251 15.345 15.1251 15.5834C15.1251 15.8217 15.0242 16.06 14.8592 16.2342C14.6851 16.3992 14.4467 16.5 14.2084 16.5Z" fill="#048547"/>
<path d="M18.7916 9.02002H3.20825C2.83242 9.02002 2.52075 8.70835 2.52075 8.33252C2.52075 7.95669 2.83242 7.64502 3.20825 7.64502H18.7916C19.1674 7.64502 19.4791 7.95669 19.4791 8.33252C19.4791 8.70835 19.1674 9.02002 18.7916 9.02002Z" fill="#048547"/>
<path d="M14.6667 20.8542H7.33333C3.9875 20.8542 2.0625 18.9292 2.0625 15.5834V7.79171C2.0625 4.44587 3.9875 2.52087 7.33333 2.52087H14.6667C18.0125 2.52087 19.9375 4.44587 19.9375 7.79171V15.5834C19.9375 18.9292 18.0125 20.8542 14.6667 20.8542ZM7.33333 3.89587C4.71167 3.89587 3.4375 5.17004 3.4375 7.79171V15.5834C3.4375 18.205 4.71167 19.4792 7.33333 19.4792H14.6667C17.2883 19.4792 18.5625 18.205 18.5625 15.5834V7.79171C18.5625 5.17004 17.2883 3.89587 14.6667 3.89587H7.33333Z" fill="#048547"/>
</svg>
