<svg width="22" height="24" viewBox="0 0 22 24" fill="none" xmlns="http://www.w3.org/2000/svg">
<path d="M10.899 8.96637C9.51512 8.96637 8.3457 10.2859 8.3457 11.8475C8.3457 13.409 9.51512 14.7286 10.899 14.7286C12.2829 14.7286 13.4523 13.409 13.4523 11.8475C13.4523 10.2859 12.2829 8.96637 10.899 8.96637Z" fill="#111111"/>
<path d="M17.7078 5.125H15.5068L13.2029 2.52528C13.124 2.43593 13.0302 2.36507 12.9269 2.31677C12.8237 2.26848 12.713 2.24371 12.6012 2.2439H9.19676C9.08497 2.24371 8.97426 2.26848 8.87099 2.31677C8.76772 2.36507 8.67393 2.43593 8.59503 2.52528L6.2911 5.125H4.09014C3.15138 5.125 2.38794 5.98644 2.38794 7.04573V17.6098C2.38794 18.669 3.15138 19.5305 4.09014 19.5305H17.7078C18.6466 19.5305 19.41 18.669 19.41 17.6098V7.04573C19.41 5.98644 18.6466 5.125 17.7078 5.125ZM10.899 16.6494C8.59248 16.6494 6.64345 14.4501 6.64345 11.8476C6.64345 9.24497 8.59248 7.04573 10.899 7.04573C13.2055 7.04573 15.1545 9.24497 15.1545 11.8476C15.1545 14.4501 13.2055 16.6494 10.899 16.6494Z" fill="#111111"/>
</svg>
