<svg width="24" height="24" viewBox="0 0 24 24" fill="none" xmlns="http://www.w3.org/2000/svg">
<g clip-path="url(#clip0_1_6106)">
<path d="M13.4775 12.1191L17.6197 7.98658C17.8011 7.80518 17.903 7.55916 17.903 7.30263C17.903 7.0461 17.8011 6.80008 17.6197 6.61869C17.4383 6.43729 17.1923 6.33539 16.9358 6.33539C16.6792 6.33539 16.4332 6.43729 16.2518 6.61869L12.1193 10.7609L7.9867 6.61869C7.8053 6.43729 7.55928 6.33539 7.30275 6.33539C7.04622 6.33539 6.8002 6.43729 6.61881 6.61869C6.43741 6.80008 6.33551 7.0461 6.33551 7.30263C6.33551 7.55916 6.43741 7.80518 6.61881 7.98658L10.761 12.1191L6.61881 16.2517C6.52852 16.3413 6.45685 16.4478 6.40795 16.5652C6.35904 16.6826 6.33386 16.8085 6.33386 16.9357C6.33386 17.0628 6.35904 17.1887 6.40795 17.3061C6.45685 17.4235 6.52852 17.5301 6.61881 17.6196C6.70836 17.7099 6.8149 17.7816 6.93229 17.8305C7.04967 17.8794 7.17558 17.9045 7.30275 17.9045C7.42992 17.9045 7.55583 17.8794 7.67321 17.8305C7.7906 17.7816 7.89714 17.7099 7.9867 17.6196L12.1193 13.4774L16.2518 17.6196C16.3414 17.7099 16.4479 17.7816 16.5653 17.8305C16.6827 17.8794 16.8086 17.9045 16.9358 17.9045C17.0629 17.9045 17.1889 17.8794 17.3062 17.8305C17.4236 17.7816 17.5302 17.7099 17.6197 17.6196C17.71 17.5301 17.7817 17.4235 17.8306 17.3061C17.8795 17.1887 17.9047 17.0628 17.9047 16.9357C17.9047 16.8085 17.8795 16.6826 17.8306 16.5652C17.7817 16.4478 17.71 16.3413 17.6197 16.2517L13.4775 12.1191Z" fill="#111111"/>
</g>
<defs>
<clipPath id="clip0_1_6106">
<rect width="23.1193" height="23.1193" fill="white" transform="translate(0.559692 0.559631)"/>
</clipPath>
</defs>
</svg>
