<svg width="32" height="32" viewBox="0 0 32 32" fill="none" xmlns="http://www.w3.org/2000/svg">
<circle cx="16" cy="16" r="14.5" fill="#048547" stroke="white" stroke-width="3"/>
<g clip-path="url(#clip0_108_86)">
<path d="M21.55 12.505L19.495 10.45C19.2268 10.1981 18.8753 10.0535 18.5075 10.0439C18.1396 10.0342 17.7811 10.16 17.5 10.3975L10.75 17.1475C10.5076 17.392 10.3566 17.7124 10.3225 18.055L9.99998 21.1825C9.98988 21.2924 10.0041 21.4031 10.0417 21.5068C10.0793 21.6105 10.1393 21.7047 10.2175 21.7825C10.2876 21.852 10.3707 21.907 10.462 21.9443C10.5534 21.9817 10.6513 22.0006 10.75 22H10.8175L13.945 21.715C14.2876 21.6809 14.608 21.5299 14.8525 21.2875L21.6025 14.5375C21.8645 14.2607 22.0061 13.8914 21.9962 13.5104C21.9864 13.1294 21.8259 12.7679 21.55 12.505V12.505ZM19 15.01L16.99 13L18.4525 11.5L20.5 13.5475L19 15.01Z" fill="white"/>
</g>
<defs>
<clipPath id="clip0_108_86">
<rect width="18" height="18" fill="white" transform="translate(7 7)"/>
</clipPath>
</defs>
</svg>
