<svg width="46" height="46" viewBox="0 0 46 46" fill="none" xmlns="http://www.w3.org/2000/svg">
<path fill-rule="evenodd" clip-rule="evenodd" d="M23 46C35.7025 46 46 35.7025 46 23C46 10.2975 35.7025 0 23 0C10.2975 0 0 10.2975 0 23C0 35.7025 10.2975 46 23 46Z" fill="#F5F6F9"/>
<path d="M24.1756 30.9308V23.1166H26.7985L27.1912 20.0713H24.1756V18.1269C24.1756 17.2452 24.4204 16.6443 25.6849 16.6443L27.2975 16.6436V13.9199C27.0185 13.8829 26.0613 13.8 24.9476 13.8C22.6226 13.8 21.0308 15.2192 21.0308 17.8255V20.0713H18.4011V23.1167H21.0307V30.9308L24.1756 30.9308Z" fill="#3C5A9A"/>
</svg>
