<svg width="22" height="24" viewBox="0 0 22 24" fill="none" xmlns="http://www.w3.org/2000/svg">
<path d="M2.52837 18.9284C2.68668 19.1973 2.95307 19.3596 3.23904 19.3596H16.0056C16.346 19.3596 16.6541 19.131 16.7877 18.7776L19.3411 12.055C19.397 11.909 19.4199 11.7495 19.4075 11.591C19.3952 11.4326 19.3482 11.28 19.2705 11.1472C19.1929 11.0143 19.0872 10.9054 18.963 10.8302C18.8388 10.755 18.6999 10.7158 18.5589 10.7163H17.7078V7.83518C17.7078 6.77589 16.9443 5.91445 16.0056 5.91445H10.3415L8.16608 3.99371H4.09014C3.15138 3.99371 2.38794 4.85516 2.38794 5.91445V18.3992H2.3939C2.392 18.5866 2.43875 18.7706 2.52837 18.9284ZM16.0056 7.83518V10.7163H5.79235C5.45191 10.7163 5.14381 10.9448 5.01019 11.2983L4.09014 13.7213V7.83518H16.0056Z" fill="#111111"/>
</svg>
