<svg width="19" height="18" viewBox="0 0 19 18" fill="none" xmlns="http://www.w3.org/2000/svg">
<path fill-rule="evenodd" clip-rule="evenodd" d="M13.3075 10.281C14.5945 10.281 15.6415 11.3227 15.6415 12.603C15.6415 13.8832 14.5945 14.925 13.3075 14.925C12.0198 14.925 10.972 13.8832 10.972 12.603C10.972 11.3227 12.0198 10.281 13.3075 10.281ZM13.3075 11.406C12.64 11.406 12.097 11.943 12.097 12.603C12.097 13.2637 12.64 13.8 13.3075 13.8C13.9743 13.8 14.5165 13.2637 14.5165 12.603C14.5165 11.943 13.9743 11.406 13.3075 11.406ZM7.82683 12.0696C8.13733 12.0696 8.38933 12.3216 8.38933 12.6321C8.38933 12.9426 8.13733 13.1946 7.82683 13.1946H3.10108C2.79058 13.1946 2.53858 12.9426 2.53858 12.6321C2.53858 12.3216 2.79058 12.0696 3.10108 12.0696H7.82683ZM4.85135 3C6.1391 3 7.1861 4.0425 7.1861 5.32275C7.1861 6.603 6.1391 7.644 4.85135 7.644C3.56435 7.644 2.5166 6.603 2.5166 5.32275C2.5166 4.0425 3.56435 3 4.85135 3ZM4.85135 4.125C4.1846 4.125 3.6416 4.662 3.6416 5.32275C3.6416 5.98275 4.1846 6.519 4.85135 6.519C5.51885 6.519 6.0611 5.98275 6.0611 5.32275C6.0611 4.662 5.51885 4.125 4.85135 4.125ZM14.6599 4.8003C14.9704 4.8003 15.2224 5.0523 15.2224 5.3628C15.2224 5.6733 14.9704 5.9253 14.6599 5.9253H9.93493C9.62443 5.9253 9.37243 5.6733 9.37243 5.3628C9.37243 5.0523 9.62443 4.8003 9.93493 4.8003H14.6599Z" fill="#111111"/>
</svg>
