<svg width="46" height="46" viewBox="0 0 46 46" fill="none" xmlns="http://www.w3.org/2000/svg">
<path fill-rule="evenodd" clip-rule="evenodd" d="M23 46C35.7025 46 46 35.7025 46 23C46 10.2975 35.7025 0 23 0C10.2975 0 0 10.2975 0 23C0 35.7025 10.2975 46 23 46Z" fill="#F5F6F9"/>
<path d="M32.1989 23.3957C32.1989 22.6239 32.1363 22.0606 32.0007 21.4766H23.1873V24.9602H28.3606C28.2563 25.8259 27.6931 27.1297 26.4414 28.0058L26.4239 28.1224L29.2105 30.2812L29.4036 30.3005C31.1767 28.6629 32.1989 26.2535 32.1989 23.3957Z" fill="#4285F4"/>
<path d="M23.1871 32.5743C25.7216 32.5743 27.8493 31.7398 29.4035 30.3005L26.4413 28.0058C25.6486 28.5586 24.5847 28.9445 23.1871 28.9445C20.7048 28.9445 18.5979 27.307 17.8469 25.0437L17.7368 25.053L14.8392 27.2955L14.8013 27.4009C16.3449 30.4673 19.5157 32.5743 23.1871 32.5743Z" fill="#34A853"/>
<path d="M17.8469 25.0438C17.6487 24.4597 17.534 23.8338 17.534 23.1872C17.534 22.5405 17.6487 21.9147 17.8365 21.3306L17.8312 21.2062L14.8973 18.9277L14.8013 18.9734C14.1651 20.2459 13.8 21.6748 13.8 23.1872C13.8 24.6996 14.1651 26.1285 14.8013 27.401L17.8469 25.0438Z" fill="#FBBC05"/>
<path d="M23.1871 17.4297C24.9498 17.4297 26.1388 18.1911 26.8168 18.8274L29.466 16.2407C27.839 14.7283 25.7216 13.8 23.1871 13.8C19.5157 13.8 16.3449 15.9069 14.8013 18.9734L17.8364 21.3306C18.5979 19.0673 20.7048 17.4297 23.1871 17.4297Z" fill="#EB4335"/>
</svg>
