<svg width="25" height="24" viewBox="0 0 25 24" fill="none" xmlns="http://www.w3.org/2000/svg">
<path d="M14.8932 3.19943L14.8935 3.19962L20.6534 7.22955C20.6534 7.22957 20.6535 7.2296 20.6535 7.22962C21.1227 7.55809 21.567 8.09665 21.8944 8.72383C22.2218 9.35104 22.4101 10.0242 22.4101 10.5999V17.3799C22.4101 19.6538 20.564 21.4999 18.2901 21.4999H7.51014C5.23768 21.4999 3.39014 19.6452 3.39014 17.3699V10.4699C3.39014 9.9355 3.56052 9.29642 3.85871 8.6908C4.15676 8.08545 4.56121 7.55682 4.98765 7.22419L4.98776 7.2241L9.99638 3.31518C9.9966 3.31501 9.99682 3.31484 9.99704 3.31467C11.3339 2.27937 13.5029 2.22535 14.8932 3.19943ZM12.9001 19.2499C13.5863 19.2499 14.1501 18.6861 14.1501 17.9999V14.9999C14.1501 14.3138 13.5863 13.7499 12.9001 13.7499C12.214 13.7499 11.6501 14.3138 11.6501 14.9999V17.9999C11.6501 18.6861 12.214 19.2499 12.9001 19.2499Z" fill="#048547" stroke="#048547"/>
</svg>
