<svg width="46" height="46" viewBox="0 0 46 46" fill="none" xmlns="http://www.w3.org/2000/svg">
<path fill-rule="evenodd" clip-rule="evenodd" d="M23 46C35.7025 46 46 35.7025 46 23C46 10.2975 35.7025 0 23 0C10.2975 0 0 10.2975 0 23C0 35.7025 10.2975 46 23 46Z" fill="#F5F6F9"/>
<path d="M22.92 19.1172C20.3486 19.1172 18.2995 21.0904 18.2995 23.481C18.2995 25.9096 20.3486 27.8449 22.92 27.8449C25.4512 27.8449 27.5405 25.9096 27.5405 23.481C27.5405 21.0904 25.4512 19.1172 22.92 19.1172ZM22.92 26.327C21.2727 26.327 19.9066 25.0748 19.9066 23.481C19.9066 21.9252 21.2325 20.673 22.92 20.673C24.5673 20.673 25.8932 21.9252 25.8932 23.481C25.8932 25.0748 24.5673 26.327 22.92 26.327ZM28.7861 18.9654C28.7861 18.3962 28.3039 17.9408 27.7012 17.9408C27.0986 17.9408 26.6164 18.3962 26.6164 18.9654C26.6164 19.5346 27.0986 19.99 27.7012 19.99C28.3039 19.99 28.7861 19.5346 28.7861 18.9654ZM31.8396 19.99C31.7593 18.6239 31.4378 17.4096 30.3932 16.423C29.3486 15.4364 28.0628 15.1328 26.6164 15.0569C25.1298 14.981 20.67 14.981 19.1834 15.0569C17.737 15.1328 16.4914 15.4364 15.4066 16.423C14.362 17.4096 14.0405 18.6239 13.9602 19.99C13.8798 21.394 13.8798 25.606 13.9602 27.01C14.0405 28.3761 14.362 29.5524 15.4066 30.577C16.4914 31.5636 17.737 31.8672 19.1834 31.9431C20.67 32.019 25.1298 32.019 26.6164 31.9431C28.0628 31.8672 29.3486 31.5636 30.3932 30.577C31.4378 29.5524 31.7593 28.3761 31.8396 27.01C31.92 25.606 31.92 21.394 31.8396 19.99ZM29.9111 28.4899C29.6298 29.2489 28.987 29.8181 28.2236 30.1216C27.0182 30.577 24.2057 30.4632 22.92 30.4632C21.5941 30.4632 18.7816 30.577 17.6164 30.1216C16.8128 29.8181 16.2102 29.2489 15.8887 28.4899C15.4066 27.3895 15.5271 24.7333 15.5271 23.481C15.5271 22.2667 15.4066 19.6105 15.8887 18.4721C16.2102 17.7511 16.8128 17.1819 17.6164 16.8783C18.7816 16.423 21.5941 16.5368 22.92 16.5368C24.2057 16.5368 27.0182 16.423 28.2236 16.8783C28.987 17.144 29.5896 17.7511 29.9111 18.4721C30.3932 19.6105 30.2727 22.2667 30.2727 23.481C30.2727 24.7333 30.3932 27.3895 29.9111 28.4899Z" fill="#E1306C"/>
</svg>
