<svg width="24" height="24" viewBox="0 0 24 24" fill="none" xmlns="http://www.w3.org/2000/svg">
<rect width="24" height="24" rx="8.4" fill="white"/>
<path d="M11.492 8.91803L12 9.59706L12.508 8.91803C12.9999 8.26056 13.7873 7.83441 14.664 7.83441C16.1526 7.83441 17.3655 9.04739 17.3655 10.554C17.3655 11.1989 17.2628 11.7931 17.0843 12.3446L17.083 12.3488C16.6545 13.705 15.7719 14.8097 14.8032 15.6423C13.8317 16.4772 12.81 17.0067 12.1676 17.2253L12.1676 17.2253L12.1608 17.2277L12.1608 17.2277C12.1607 17.2277 12.1595 17.2281 12.1572 17.2288C12.1547 17.2295 12.1511 17.2304 12.1465 17.2315C12.1371 17.2337 12.1246 17.2361 12.1092 17.2383C12.0778 17.2428 12.0402 17.2455 12 17.2455C11.9598 17.2455 11.9222 17.2428 11.8908 17.2383C11.8754 17.2361 11.8629 17.2337 11.8535 17.2315C11.8489 17.2304 11.8453 17.2295 11.8428 17.2288C11.8412 17.2283 11.8402 17.228 11.8396 17.2278C11.8393 17.2277 11.8391 17.2276 11.8392 17.2277L11.8392 17.2276L11.8324 17.2253C11.19 17.0067 10.1683 16.4772 9.19679 15.6423C8.22807 14.8097 7.34555 13.705 6.91697 12.3488L6.91699 12.3488L6.91565 12.3447C6.73722 11.7931 6.63446 11.1989 6.63446 10.554C6.63446 9.04739 7.84736 7.83441 9.336 7.83441C10.2127 7.83441 11.0001 8.26056 11.492 8.91803Z" stroke="#FF3636" stroke-width="1.26892"/>
</svg>
