<svg width="18" height="16" viewBox="0 0 18 16" fill="none" xmlns="http://www.w3.org/2000/svg">
<path d="M8.40758 2.44827L9 3.23914L9.59242 2.44827C10.3681 1.41272 11.6107 0.740205 12.996 0.740205C15.3476 0.740205 17.2598 2.6534 17.2598 5.02472C17.2598 6.01377 17.1019 6.92566 16.8278 7.77189L16.8263 7.77671C16.1684 9.85605 14.8164 11.5421 13.343 12.8069C11.8664 14.0744 10.3104 14.8817 9.31984 15.2183L9.31982 15.2182L9.31192 15.221C9.26268 15.2384 9.14965 15.2598 9 15.2598C8.85034 15.2598 8.73732 15.2384 8.68808 15.221L8.6881 15.221L8.68016 15.2183C7.68964 14.8817 6.13364 14.0744 4.65699 12.8069C3.18356 11.5421 1.83162 9.85605 1.17372 7.77671L1.17374 7.77671L1.17218 7.77189C0.898057 6.92566 0.740205 6.01377 0.740205 5.02472C0.740205 2.65341 2.65239 0.740205 5.004 0.740205C6.38926 0.740205 7.63187 1.41272 8.40758 2.44827Z" stroke="#FF3636" stroke-width="1.48041"/>
</svg>
