<svg width="22" height="22" viewBox="0 0 22 22" fill="none" xmlns="http://www.w3.org/2000/svg">
<path d="M10.9999 12.9892C9.04739 12.9892 7.45239 11.4033 7.45239 9.44165C7.45239 7.47999 9.04739 5.90332 10.9999 5.90332C12.9524 5.90332 14.5474 7.48915 14.5474 9.45082C14.5474 11.4125 12.9524 12.9892 10.9999 12.9892ZM10.9999 7.27832C9.80823 7.27832 8.82739 8.24999 8.82739 9.45082C8.82739 10.6517 9.79906 11.6233 10.9999 11.6233C12.2007 11.6233 13.1724 10.6517 13.1724 9.45082C13.1724 8.24999 12.1916 7.27832 10.9999 7.27832Z" fill="#048547"/>
<path d="M11 20.8634C9.64337 20.8634 8.27754 20.35 7.21421 19.3325C4.51004 16.7292 1.52171 12.5767 2.64921 7.63587C3.66671 3.15337 7.58087 1.14587 11 1.14587C11 1.14587 11 1.14587 11.0092 1.14587C14.4284 1.14587 18.3425 3.15337 19.36 7.64504C20.4784 12.5859 17.49 16.7292 14.7859 19.3325C13.7225 20.35 12.3567 20.8634 11 20.8634ZM11 2.52087C8.33254 2.52087 4.90421 3.94171 3.99671 7.93837C3.00671 12.2559 5.72004 15.9775 8.17671 18.3334C9.76254 19.8642 12.2467 19.8642 13.8325 18.3334C16.28 15.9775 18.9934 12.2559 18.0217 7.93837C17.105 3.94171 13.6675 2.52087 11 2.52087Z" fill="#048547"/>
</svg>
