<svg width="15" height="17" viewBox="0 0 15 17" fill="none" xmlns="http://www.w3.org/2000/svg">
<g clip-path="url(#clip0_1_5817)">
<path d="M2.5415 7.4375C2.5415 4.25 4.6665 2.125 7.854 2.125C11.0415 2.125 13.1665 4.78125 13.1665 7.4375C13.1665 9.08973 11.6249 11.3586 8.54178 14.2441C8.14825 14.6124 7.54128 14.6277 7.1297 14.2796C4.0709 11.693 2.5415 9.41233 2.5415 7.4375ZM7.854 8.5C8.83201 8.5 9.62484 7.70717 9.62484 6.72917C9.62484 5.75116 8.83201 4.95833 7.854 4.95833C6.876 4.95833 6.08317 5.75116 6.08317 6.72917C6.08317 7.70717 6.876 8.5 7.854 8.5Z" fill="#78828A"/>
</g>
<defs>
<clipPath id="clip0_1_5817">
<rect width="15" height="17" fill="white"/>
</clipPath>
</defs>
</svg>
