<svg width="20" height="18" viewBox="0 0 20 18" fill="none" xmlns="http://www.w3.org/2000/svg">
<path d="M8.5735 1.5572C9.02253 0.175237 10.9776 0.175238 11.4267 1.5572L12.5446 4.99777C12.7454 5.6158 13.3213 6.03424 13.9712 6.03424H17.5888C19.0419 6.03424 19.646 7.89367 18.4705 8.74777L15.5437 10.8742C15.018 11.2561 14.798 11.9332 14.9988 12.5512L16.1167 15.9918C16.5658 17.3737 14.9841 18.5229 13.8085 17.6688L10.8818 15.5424C10.356 15.1605 9.64414 15.1605 9.1184 15.5424L6.19168 17.6688C5.01611 18.5229 3.43439 17.3737 3.88342 15.9918L5.00133 12.5512C5.20214 11.9332 4.98215 11.2561 4.45642 10.8742L1.5297 8.74777C0.354133 7.89366 0.958297 6.03424 2.41138 6.03424H6.02901C6.67885 6.03424 7.25478 5.6158 7.45559 4.99777L8.5735 1.5572Z" fill="#FCD240"/>
</svg>
